<svg width="232" height="232" viewBox="0 0 232 232" fill="none" xmlns="http://www.w3.org/2000/svg">
<path d="M4.27693 124.485C-0.409366 119.799 -0.409365 112.201 4.27693 107.515L107.515 4.27717C112.201 -0.409122 119.799 -0.409121 124.485 4.27717L227.723 107.515C232.409 112.201 232.409 119.799 227.723 124.485L124.485 227.723C119.799 232.409 112.201 232.409 107.515 227.723L4.27693 124.485Z" fill="#131313"/>
<path d="M38.218 121.68C35.0938 118.556 35.0938 113.49 38.218 110.366L111.05 37.534C114.174 34.4098 119.24 34.4098 122.364 37.534L195.196 110.366C198.32 113.49 198.32 118.556 195.196 121.68L122.364 194.512C119.24 197.636 114.174 197.636 111.05 194.512L38.218 121.68Z" fill="#080808"/>
<path d="M78.2428 120.066C75.8996 117.723 75.8996 113.924 78.2428 111.581L111.581 78.2426C113.924 75.8995 117.723 75.8995 120.066 78.2426L153.404 111.581C155.747 113.924 155.747 117.723 153.404 120.066L120.066 153.404C117.723 155.747 113.924 155.747 111.581 153.404L78.2428 120.066Z" fill="#535EB5"/>
<path d="M129 71.0884L135.089 65L141.177 71.0884L135.089 77.1768L129 71.0884Z" fill="#3543B7"/>
<path d="M147 65.5442L155.544 57L164.089 65.5442L155.544 74.0884L147 65.5442Z" fill="#5E6BDA"/>
<path d="M143.544 83.5442L147.088 80L150.632 83.5442L147.088 87.0884L143.544 83.5442Z" fill="#737FDA"/>
</svg>
